<svg id="Layer_5" data-name="Layer 5" xmlns="http://www.w3.org/2000/svg" width="500" height="500" viewBox="0 0 500 500"><title>start_surkl</title><rect fill="#F4FBFB" x="173.79" y="241.03" width="159.26" height="31.85" rx="12.77" ry="12.77"/><rect fill="#F4FBFB" x="240.01" y="179" width="31.85" height="159.26" rx="13" ry="13"/><path fill="#F4FBFB" d="M236.28,99.75a65.26,65.26,0,0,1,61.59,43.86,66.62,66.62,0,0,1,2.21,8.06l5.8,27.54,27.89,3.84a108.9,108.9,0,0,1,88.17,72.24A109,109,0,0,1,319,400a109.38,109.38,0,0,1-84.16-39.77l-18.93-23-27.47,11.56c-1.73.72-3.34,1.34-4.92,1.9A80.23,80.23,0,0,1,131,199a83.31,83.31,0,0,1,9-2.56L169.08,190l2.15-29.7a65.33,65.33,0,0,1,65.05-60.57m0-40a105.31,105.31,0,0,0-104.94,97.67,123.62,123.62,0,0,0-13.49,3.82A120.22,120.22,0,1,0,196.67,388.4c2.49-.86,4.92-1.8,7.32-2.81A148.94,148.94,0,1,0,339.22,143.42,105,105,0,0,0,236.28,59.75Z"/></svg>