<svg id="Layer_16" data-name="Layer 16" xmlns="http://www.w3.org/2000/svg" width="128" height="128" viewBox="0 0 128 128"><defs><style>.cls-1{fill:#efc141;}</style></defs><title>stream_icon</title><path class="cls-1" d="M64.55,28.08v4l1.45,0a35.51,35.51,0,0,1-1.4,71l-1.45,0a35.51,35.51,0,0,1,1.4-71v-4m0,0a39.51,39.51,0,0,0-1.56,79l1.61,0a39.51,39.51,0,0,0,1.56-79l-1.61,0Z"/><path class="cls-1" d="M64.46,43.16h-.57a14,14,0,0,1,.55-28H65a14,14,0,0,1-.56,28Z"/><path class="cls-1" d="M64.44,15.66H65a13.5,13.5,0,0,1-.54,27h-.55a13.5,13.5,0,0,1,.53-27m0-1a14.5,14.5,0,0,0-.57,29l.59,0a14.5,14.5,0,0,0,.58-29Z"/><path class="cls-1" d="M97.89,54.81a6.53,6.53,0,0,1-6.34-5.08A6.51,6.51,0,0,1,96.48,42a6.18,6.18,0,0,1,1.42-.16,6.5,6.5,0,0,1,1.41,12.85A6.85,6.85,0,0,1,97.89,54.81Z"/><path class="cls-1" d="M97.9,42.31h0A6,6,0,0,1,103.75,47a6,6,0,0,1-4.55,7.17,5.78,5.78,0,0,1-1.31.14A6,6,0,0,1,92,49.62a6,6,0,0,1,4.55-7.16,5.79,5.79,0,0,1,1.31-.15m0-1a7.25,7.25,0,0,0-1.53.17,7,7,0,0,0,1.52,13.83,6.71,6.71,0,0,0,1.53-.17A7,7,0,0,0,97.9,41.31Z"/><path class="cls-1" d="M31,54.51a6.5,6.5,0,0,1-1.41-12.84A6.25,6.25,0,0,1,31,41.51a6.54,6.54,0,0,1,6.34,5.08,6.51,6.51,0,0,1-4.93,7.76A6.18,6.18,0,0,1,31,54.51Z"/><path class="cls-1" d="M31,42h0a6,6,0,0,1,5.85,4.69,6,6,0,0,1-4.55,7.17A6.41,6.41,0,0,1,31,54a6,6,0,0,1-1.3-11.85A5.79,5.79,0,0,1,31,42m0-1a6.71,6.71,0,0,0-1.53.17A7,7,0,0,0,31,55a6.65,6.65,0,0,0,1.53-.17A7,7,0,0,0,31,41Z"/><path class="cls-1" d="M66,112.53A6.5,6.5,0,0,1,64.6,99.68,6.72,6.72,0,0,1,66,99.52a6.55,6.55,0,0,1,6.34,5.09,6.51,6.51,0,0,1-4.93,7.76A6.87,6.87,0,0,1,66,112.53Z"/><path class="cls-1" d="M66,100h0a6,6,0,0,1,5.85,4.7,6,6,0,0,1-4.55,7.16A5.79,5.79,0,0,1,66,112a6,6,0,0,1-5.85-4.7A6,6,0,0,1,66,100m0-1a7.25,7.25,0,0,0-1.53.17A7,7,0,0,0,66,113a7.32,7.32,0,0,0,1.53-.17A7,7,0,0,0,66,99Z"/><path class="cls-1" d="M30,92.52a6.55,6.55,0,0,1-6.34-5.08,6.51,6.51,0,0,1,4.93-7.76A6.25,6.25,0,0,1,30,79.52a6.5,6.5,0,0,1,1.41,12.84A6.18,6.18,0,0,1,30,92.52Z"/><path class="cls-1" d="M30,80h0a6,6,0,0,1,5.85,4.69,6,6,0,0,1-4.55,7.17A6.41,6.41,0,0,1,30,92a6,6,0,0,1-5.85-4.69,6,6,0,0,1,4.55-7.17A6.41,6.41,0,0,1,30,80m0-1a6.71,6.71,0,0,0-1.53.17A7,7,0,0,0,30,93a6.65,6.65,0,0,0,1.53-.17A7,7,0,0,0,30,79Z"/><path class="cls-1" d="M98,92.52a6.53,6.53,0,0,1-6.33-5.08,6.49,6.49,0,0,1,4.92-7.76A6.27,6.27,0,0,1,98,79.52a6.53,6.53,0,0,1,6.33,5.08,6.49,6.49,0,0,1-4.92,7.76A6.27,6.27,0,0,1,98,92.52Z"/><path class="cls-1" d="M98,80h0a6,6,0,0,1,1.3,11.86A6.5,6.5,0,0,1,98,92a6,6,0,0,1-1.3-11.86A6.58,6.58,0,0,1,98,80m0-1a6.79,6.79,0,0,0-1.54.17A7,7,0,0,0,98,93a6.79,6.79,0,0,0,1.54-.17A7,7,0,0,0,98,79Z"/><path class="cls-1" d="M57.78,96.53c-2-1.48-7.45-6-9-13.09-1.17-5.34,0-11,3.53-17-.4,2.53-.66,6.35.59,9.48l.28.7.54-.53a22.78,22.78,0,0,0,4.45-7.61c1.64-4.39,3.09-11.58.94-21.27A33.56,33.56,0,0,1,69.73,62l.27.73.56-.55a8.67,8.67,0,0,0,2-4.92c1.26,1.93,3.47,6.62,2.06,14.38l-.21,1.16,1-.65c.12-.09,2.79-2,3.16-8.76a28.48,28.48,0,0,1,3.76,9.46c1.48,7.8-.93,14.86-7.17,21,.8-3.19,1.63-9.82-3.7-13.62l-1.1-.79.33,1.31a43.92,43.92,0,0,1,.93,5c-1.87-1.18-6.66-5.36-5.89-16.94l.11-1.59-1,1.25A21.05,21.05,0,0,0,60.8,80.09a1.33,1.33,0,0,1-1-1.41V77l-.92,1.38c-.07.11-1.67,2.58-.59,6.72a4,4,0,0,1-1.46-2.49l-1,0C55.8,83,55.07,92.28,57.78,96.53Z"/><path class="cls-1" d="M59.89,48.48a33.37,33.37,0,0,1,9.37,13.71l.54,1.47,1.11-1.11a8.62,8.62,0,0,0,2-3.88c1.17,2.27,2.48,6.47,1.31,12.9l-.42,2.32,2-1.31c.3-.2,2.59-1.9,3.24-7.55a27.37,27.37,0,0,1,2.91,8c1.34,7.09-.61,13.56-5.82,19.27A17.34,17.34,0,0,0,76.28,90c.17-4.4-1.38-7.91-4.51-10.14l-2.21-1.58.66,2.64s.5,2,.78,3.77c-2.07-1.71-5.41-6-4.75-15.83l.21-3.18-2,2.48a21.65,21.65,0,0,0-4.11,10.9,1.38,1.38,0,0,1,0-.37v-3.3l-1.83,2.75a8.33,8.33,0,0,0-1,5.08,1.54,1.54,0,0,1-.12-.57l-2-.08c-.08,1-.56,7.65,1.07,12.24a21.87,21.87,0,0,1-7.15-11.47c-1-4.55-.23-9.38,2.27-14.43a16.84,16.84,0,0,0,.91,7.18L53,77.49l1.07-1.07c.4-.4,9.36-9.62,5.82-27.94M58.32,46c5,19.81-5,29.71-5,29.71-2-4.95,0-11.88,0-11.88-14.86,21.79,5,33.67,5,33.67h1c-4-3-3-14.86-3-14.86,0,2,3,4,3,4-2-5,0-7.93,0-7.93a1.94,1.94,0,0,0,2,2,20.71,20.71,0,0,1,4-11.88c-1,14.85,6.93,17.83,6.93,17.83a35,35,0,0,0-1-6c6.94,5,3,14.86,3,14.86,17.83-15.85,4-33.67,4-33.67,0,7.92-3,9.9-3,9.9,2-10.89-3-15.85-3-15.85a8.68,8.68,0,0,1-2,6A32.87,32.87,0,0,0,58.32,46Z"/></svg>