<svg id="Layer_17" data-name="Layer 17" xmlns="http://www.w3.org/2000/svg" width="128" height="128" viewBox="0 0 128 128"><defs><style>.cls-1{fill:#efc141;}</style></defs><title>trio_icon</title><path class="cls-1" d="M63.55,20.08v4l1.45,0a35.51,35.51,0,0,1-1.4,71l-1.45,0a35.51,35.51,0,0,1,1.4-71v-4m0,0a39.51,39.51,0,0,0-1.56,79l1.61,0a39.51,39.51,0,0,0,1.56-79l-1.61,0Z"/><path class="cls-1" d="M64,106.52a9.5,9.5,0,1,1,9.14-7,9.53,9.53,0,0,1-9.14,7Z"/><path class="cls-1" d="M64,87v1a9,9,0,1,1-4.41,1.16A9,9,0,0,1,64,88V87m0,0a10,10,0,1,0,8.72,5.09A10,10,0,0,0,64,87Z"/><path class="cls-1" d="M97,52.51a9.52,9.52,0,0,1-8.29-4.84,9.51,9.51,0,0,1,3.61-12.94A9.5,9.5,0,1,1,97,52.51Z"/><path class="cls-1" d="M97,33v1a9,9,0,0,1,8.67,11.42A9,9,0,0,1,97,52a9,9,0,0,1-7.86-4.59A9,9,0,0,1,97,34V33m0,0a10,10,0,1,0,8.72,5.09A10,10,0,0,0,97,33Z"/><path class="cls-1" d="M30,52.51a9.5,9.5,0,0,1-8.28-4.84,9.51,9.51,0,0,1,3.61-12.94,9.5,9.5,0,0,1,12.94,3.62A9.49,9.49,0,0,1,30,52.51Z"/><path class="cls-1" d="M30,33v1a9,9,0,0,1,7.85,4.58A9,9,0,0,1,30,52a9,9,0,0,1-7.85-4.58A9,9,0,0,1,30,34V33m0,0a9.87,9.87,0,0,0-4.9,1.29A10,10,0,0,0,30,53a9.87,9.87,0,0,0,4.9-1.29A10,10,0,0,0,30,33Z"/><path class="cls-1" d="M66.53,83.64c-.44-2.42-2.09-7.28-8.15-11.07l-1.11-.69C51,68,49,66.71,48.58,63.35c1.17,1.32,3.22,3.35,5.33,4.05l1.38.46-.81-1.21c-.07-.11-7-10.75-1.09-18.42-.3,3.57-.33,12.14,5.41,17.06l.21.18C65.68,71.18,71,75.75,66.53,83.64Z"/><path class="cls-1" d="M52.8,50.05A28.67,28.67,0,0,0,53,53.63c.52,5.22,2.43,9.38,5.52,12l.21.18c6.38,5.46,11.17,9.56,8,16.37a17.7,17.7,0,0,0-8.06-10.07l-1.1-.69c-5-3.12-7.15-4.51-8-6.4a12.32,12.32,0,0,0,4.22,2.82l2.76.92L54.9,66.37c-.07-.1-5.95-9.11-2.1-16.32m1.27-3.34c-8.09,8.09,0,20.22,0,20.22-3-1-6.07-5.06-6.07-5.06,0,5.06,2,6.07,10.11,11.13S66.2,85.13,66.2,85.13c6.07-9.1,0-14.16-7.08-20.22s-5-18.2-5-18.2Z"/><path class="cls-1" d="M67.5,69.09c-2.6-1.79-7.88-6-9.46-12-1-3.83-.34-7.76,2-11.69.12-.15,3.67-4.71,1.54-12.1,1.53,1.56,4,5.84,2.59,16.83l-.14,1.09.91-.61c.12-.08,2.94-2,4.1-8.43.86,1.19,2,4-.77,8.78C64.28,58,63.33,60.34,67.5,69.09Z"/><path class="cls-1" d="M62.62,35.72c1.12,2.36,2,6.67,1.07,14.4l-.27,2.17,1.82-1.21c.12-.08,2.68-1.85,4-7.36.47,1.41.52,3.69-1.39,7C64.1,57.35,63,60,66.25,67.56c-2.7-2.12-6.45-5.78-7.72-10.55-1-3.67-.34-7.46,1.93-11.26a13.84,13.84,0,0,0,2.16-10m-2-3.67c3,8.09-1,13.14-1,13.14-9.1,15.17,9.1,25.28,9.1,25.28-5.06-10.11-4-12.14,0-19.21s0-10.11,0-10.11c-1,7.07-4,9.1-4,9.1,2-16.18-4-18.2-4-18.2Z"/></svg>