<svg id="Layer_15" data-name="Layer 15" xmlns="http://www.w3.org/2000/svg" width="92" height="92" viewBox="0 0 92 92"><defs><style>.cls-1{fill:#efc141;}</style></defs><title>8ball-yellow</title><path class="cls-1" d="M64,109.5A45.5,45.5,0,1,1,109.5,64,45.55,45.55,0,0,1,64,109.5Zm-3-57A25.5,25.5,0,1,0,86.5,78,25.53,25.53,0,0,0,61,52.5Z" transform="translate(-18 -18)"/><path class="cls-1" d="M64,19A45,45,0,1,1,19,64,45.05,45.05,0,0,1,64,19m-3,85A26,26,0,1,0,35,78a26,26,0,0,0,26,26m3-86a46,46,0,1,0,46,46A46,46,0,0,0,64,18Zm-3,85A25,25,0,1,1,86,78a25,25,0,0,1-25,25Z" transform="translate(-18 -18)"/><path class="cls-1" d="M48.42,93.23c-.92-3.89,1.66-7,6.77-9L55.1,84c-5.31-1.86-8.26-5.32-9.09-9.17-1.74-8.1,4.73-14.55,14.83-14.57,10.91,0,15.42,6.91,14.67,13.12-.46,3.77-2.74,7.52-8.28,9.89v.17c5.19,1.62,8,4.48,7.45,8.22-.68,4.74-6.17,7.81-12.76,8.1C54.58,100.1,49.38,97.24,48.42,93.23Zm21-1c.25-3.71-3.13-5.53-8.86-6.69-4.9,1.33-7.19,4-6.73,6.9.27,2.88,3.46,5.1,8.09,4.9C66.29,97.2,69.22,95.13,69.42,92.27Zm-17.06-18c.63,4.46,4.42,6.59,9.72,7.67,3.85-1.24,7-3.83,7.15-7.82S67.14,65.93,60.65,66C54.56,66,51.76,70.05,52.36,74.29Z" transform="translate(-18 -18)"/></svg>